<?xml version="1.0" encoding="UTF-8" standalone="no"?>
<svg
   xmlns:dc="http://purl.org/dc/elements/1.1/"
   xmlns:cc="http://creativecommons.org/ns#"
   xmlns:rdf="http://www.w3.org/1999/02/22-rdf-syntax-ns#"
   xmlns:svg="http://www.w3.org/2000/svg"
   xmlns="http://www.w3.org/2000/svg"
   xmlns:sodipodi="http://sodipodi.sourceforge.net/DTD/sodipodi-0.dtd"
   xmlns:inkscape="http://www.inkscape.org/namespaces/inkscape"
   width="16"
   height="16"
   viewBox="0 0 4.2333333 4.2333334"
   version="1.1"
   id="svg8"
   inkscape:version="1.0.2 (e86c870879, 2021-01-15)"
   sodipodi:docname="folder.svg"
   inkscape:export-filename="/home/paul/Images/opendingux/icons/pngs/password.big.png"
   inkscape:export-xdpi="38.400002"
   inkscape:export-ydpi="38.400002">
  <defs
     id="defs2" />
  <sodipodi:namedview
     id="base"
     pagecolor="#ffffff"
     bordercolor="#666666"
     borderopacity="1.0"
     inkscape:pageopacity="0.0"
     inkscape:pageshadow="2"
     inkscape:zoom="2.8"
     inkscape:cx="-37.393897"
     inkscape:cy="1.9935162"
     inkscape:document-units="px"
     inkscape:current-layer="layer1"
     inkscape:document-rotation="0"
     showgrid="true"
     units="px"
     showguides="false"
     inkscape:window-width="1600"
     inkscape:window-height="836"
     inkscape:window-x="0"
     inkscape:window-y="0"
     inkscape:window-maximized="1">
    <inkscape:grid
       type="xygrid"
       id="grid838" />
  </sodipodi:namedview>
  <metadata
     id="metadata5">
    <rdf:RDF>
      <cc:Work
         rdf:about="">
        <dc:format>image/svg+xml</dc:format>
        <dc:type
           rdf:resource="http://purl.org/dc/dcmitype/StillImage" />
        <dc:title></dc:title>
      </cc:Work>
    </rdf:RDF>
  </metadata>
  <g
     inkscape:label="Calque 1"
     inkscape:groupmode="layer"
     id="layer1">
    <rect
       style="fill:#000000;stroke-width:0.076031;stroke-miterlimit:4;stroke-dasharray:none"
       id="rect1244-5"
       width="4.2333336"
       height="4.2333336"
       x="7.1054274e-15"
       y="7.1054274e-15"
       rx="0.79374999"
       ry="0.79374999" />
    <rect
       style="fill:#aa8800;stroke-width:0.066527;stroke-miterlimit:4;stroke-dasharray:none"
       id="rect1244"
       width="3.7041667"
       height="3.7041667"
       x="0.26458335"
       y="0.26458335"
       rx="0.79374999"
       ry="0.79374999" />
    <rect
       style="fill:#fff6d5;stroke-width:0.0502898;stroke-miterlimit:4;stroke-dasharray:none"
       id="rect1244-3"
       width="3.7041667"
       height="2.1166668"
       x="0.26458335"
       y="0.79374999" />
    <path
       id="rect1282-3-7"
       style="fill:#000000;fill-opacity:1;stroke-width:0.071514;stroke-miterlimit:4;stroke-dasharray:none"
       d="M 1.7456298,0.79375002 C 1.5260716,0.82324812 1.1080402,0.92989145 1.1058756,1.3172323 1.1028856,1.8536921 0.33382971,1.8520833 0.33382973,1.8520833 H 0.26458333 V 3.175 c 0,0.4397375 0.3540125,0.79375 0.79374997,0.79375 H 3.175 c 0.4397375,0 0.79375,-0.3540125 0.79375,-0.79375 V 2.7083617 1.6381429 c 0,-0.4341796 -0.3703773,-0.78719862 -0.8526611,-0.84439288 z" />
    <path
       id="rect1282-3-7-5"
       style="fill:#ffcc00;fill-opacity:1;stroke-width:0.071514;stroke-miterlimit:4;stroke-dasharray:none"
       d="M 1.7456298,1.0583334 C 1.5260716,1.0878315 1.1080403,1.1944749 1.1058756,1.5818157 1.1028856,2.1182755 0.33382973,2.1166667 0.33382975,2.1166667 h -0.0692464 v 1.0583334 c 0,0.4397375 0.35401251,0.79375 0.79374997,0.79375 h 2.1166666 c 0.4397375,0 0.79375,-0.3540125 0.79375,-0.79375 V 2.9729452 2.7083618 1.9027263 c 0,-0.4341796 -0.3703772,-0.7871986 -0.852661,-0.8443929 z" />
  </g>
</svg>
