<?xml version="1.0" encoding="UTF-8" standalone="no"?>
<svg
   xmlns:dc="http://purl.org/dc/elements/1.1/"
   xmlns:cc="http://creativecommons.org/ns#"
   xmlns:rdf="http://www.w3.org/1999/02/22-rdf-syntax-ns#"
   xmlns:svg="http://www.w3.org/2000/svg"
   xmlns="http://www.w3.org/2000/svg"
   xmlns:sodipodi="http://sodipodi.sourceforge.net/DTD/sodipodi-0.dtd"
   xmlns:inkscape="http://www.inkscape.org/namespaces/inkscape"
   width="320"
   height="320"
   viewBox="0 0 84.666665 84.666669"
   version="1.1"
   id="svg8"
   inkscape:version="1.0.2 (e86c870879, 2021-01-15)"
   sodipodi:docname="configure.svg"
   inkscape:export-filename="/home/paul/Images/opendingux/icons/poweroff.png"
   inkscape:export-xdpi="38.400002"
   inkscape:export-ydpi="38.400002">
  <defs
     id="defs2" />
  <sodipodi:namedview
     id="base"
     pagecolor="#ffffff"
     bordercolor="#666666"
     borderopacity="1.0"
     inkscape:pageopacity="0.0"
     inkscape:pageshadow="2"
     inkscape:zoom="1.979899"
     inkscape:cx="102.16909"
     inkscape:cy="152.78004"
     inkscape:document-units="px"
     inkscape:current-layer="layer1"
     inkscape:document-rotation="0"
     showgrid="false"
     units="px"
     showguides="false"
     inkscape:window-width="1600"
     inkscape:window-height="836"
     inkscape:window-x="0"
     inkscape:window-y="0"
     inkscape:window-maximized="1"
     inkscape:lockguides="false" />
  <metadata
     id="metadata5">
    <rdf:RDF>
      <cc:Work
         rdf:about="">
        <dc:format>image/svg+xml</dc:format>
        <dc:type
           rdf:resource="http://purl.org/dc/dcmitype/StillImage" />
        <dc:title />
      </cc:Work>
    </rdf:RDF>
  </metadata>
  <g
     inkscape:label="Calque 1"
     inkscape:groupmode="layer"
     id="layer1">
    <rect
       style="fill:#000000;fill-opacity:1;stroke-width:1.52062;stroke-miterlimit:4;stroke-dasharray:none"
       id="rect1282"
       width="84.666664"
       height="84.666664"
       x="-2.220446e-16"
       y="0"
       rx="16.933334"
       ry="16.933334" />
    <rect
       style="fill:#666666;stroke-width:1.42558;stroke-miterlimit:4;stroke-dasharray:none;fill-opacity:1"
       id="rect1244"
       width="79.375"
       height="79.375"
       x="2.6458333"
       y="2.6458333"
       rx="15.875"
       ry="15.875" />
    <rect
       style="fill:#808080;fill-opacity:1;stroke-width:1.2355;stroke-miterlimit:4;stroke-dasharray:none"
       id="rect1244-3"
       width="68.791664"
       height="68.791664"
       x="7.9375"
       y="7.9375"
       rx="13.758333"
       ry="13.758333" />
    <path
       id="path1403"
       style="fill:#ffffff;stroke-width:1.59812"
       d="m 25.163757,18.34423 -6.819937,6.81911 3.616605,8.731259 -8.731258,3.616605 5.84e-4,9.644264 8.730962,3.616482 -3.616483,8.73096 6.81911,6.819938 8.731259,-3.616606 3.616606,8.731259 9.644263,-5.86e-4 3.616482,-8.73096 8.73096,3.616482 6.819938,-6.81911 -3.616606,-8.731258 8.731259,-3.616606 -5.86e-4,-9.644263 -8.73096,-3.616483 3.616482,-8.73096 -6.81911,-6.819938 -8.731258,3.616606 -3.616606,-8.731258 -9.644263,5.84e-4 -3.616482,8.730962 z m 13.14893,14.345065 a 10.448565,10.448565 0 0 1 0.0165,-0.0068 10.448565,10.448565 0 0 1 13.654242,5.644838 l -9.650092,4.006035 9.653215,-3.998493 A 10.448565,10.448565 0 0 1 46.333714,51.98579 10.448565,10.448565 0 0 1 32.681682,46.335617 10.448565,10.448565 0 0 1 38.31269,32.689317 Z" />
  </g>
</svg>
