<?xml version="1.0" encoding="UTF-8" standalone="no"?>
<svg
   xmlns:dc="http://purl.org/dc/elements/1.1/"
   xmlns:cc="http://creativecommons.org/ns#"
   xmlns:rdf="http://www.w3.org/1999/02/22-rdf-syntax-ns#"
   xmlns:svg="http://www.w3.org/2000/svg"
   xmlns="http://www.w3.org/2000/svg"
   xmlns:sodipodi="http://sodipodi.sourceforge.net/DTD/sodipodi-0.dtd"
   xmlns:inkscape="http://www.inkscape.org/namespaces/inkscape"
   width="32"
   height="32"
   viewBox="0 0 84.666665 84.666669"
   version="1.1"
   id="svg8"
   inkscape:version="1.0.2 (e86c870879, 2021-01-15)"
   sodipodi:docname="poweroff.svg"
   inkscape:export-filename="/home/paul/Images/opendingux/icons/poweroff.png"
   inkscape:export-xdpi="96"
   inkscape:export-ydpi="96">
  <defs
     id="defs2" />
  <sodipodi:namedview
     id="base"
     pagecolor="#ffffff"
     bordercolor="#666666"
     borderopacity="1.0"
     inkscape:pageopacity="0.0"
     inkscape:pageshadow="2"
     inkscape:zoom="2"
     inkscape:cx="191.35925"
     inkscape:cy="159.36474"
     inkscape:document-units="px"
     inkscape:current-layer="layer1"
     inkscape:document-rotation="0"
     showgrid="false"
     units="px"
     showguides="true"
     inkscape:window-width="1600"
     inkscape:window-height="836"
     inkscape:window-x="0"
     inkscape:window-y="0"
     inkscape:window-maximized="1" />
  <metadata
     id="metadata5">
    <rdf:RDF>
      <cc:Work
         rdf:about="">
        <dc:format>image/svg+xml</dc:format>
        <dc:type
           rdf:resource="http://purl.org/dc/dcmitype/StillImage" />
        <dc:title />
      </cc:Work>
    </rdf:RDF>
  </metadata>
  <g
     inkscape:label="Calque 1"
     inkscape:groupmode="layer"
     id="layer1">
    <rect
       style="fill:#000000;fill-opacity:1;stroke-width:1.52062;stroke-miterlimit:4;stroke-dasharray:none"
       id="rect1282"
       width="84.666664"
       height="84.666664"
       x="-2.220446e-16"
       y="0"
       rx="16.933334"
       ry="16.933334" />
    <rect
       style="fill:#d40000;stroke-width:1.42558;stroke-miterlimit:4;stroke-dasharray:none"
       id="rect1244"
       width="79.375"
       height="79.375"
       x="2.6458333"
       y="2.6458333"
       rx="15.875"
       ry="15.875" />
    <rect
       style="fill:#ff0000;stroke-width:1.2355;stroke-miterlimit:4;stroke-dasharray:none"
       id="rect1244-3"
       width="68.791664"
       height="68.791664"
       x="7.9375"
       y="7.9375"
       rx="13.758333"
       ry="13.758333" />
    <path
       id="path10"
       style="fill:#ffffff;stroke-width:2.50915"
       d="M 42.316283,13.229172 A 29.104166,29.104166 0 0 0 13.229169,42.344707 29.104166,29.104166 0 0 0 42.339018,71.437505 29.104166,29.104166 0 0 0 71.437501,42.333338 H 63.500002 A 21.166665,21.166665 0 0 1 42.337468,63.500005 21.166665,21.166665 0 0 1 21.166669,42.341607 21.166665,21.166665 0 0 1 42.309046,21.166672 a 21.166665,21.166665 0 0 1 0.01189,0 21.166665,21.166665 0 0 1 21.17907,21.15013 l 7.937499,-0.0062 A 29.104166,29.104166 0 0 0 42.316283,13.229172 Z m 0.03152,10.583333 c -2.198687,0 -3.96875,1.770063 -3.96875,3.96875 v 29.104166 c 0,2.198688 1.770063,3.96875 3.96875,3.96875 2.198688,0 3.96875,-1.770062 3.96875,-3.96875 V 42.333338 h -3.98322 l 3.98322,-0.0031 V 27.781255 c 0,-2.198687 -1.770062,-3.96875 -3.96875,-3.96875 z" />
  </g>
</svg>
