<?xml version="1.0" encoding="UTF-8" standalone="no"?>
<svg
   xmlns:dc="http://purl.org/dc/elements/1.1/"
   xmlns:cc="http://creativecommons.org/ns#"
   xmlns:rdf="http://www.w3.org/1999/02/22-rdf-syntax-ns#"
   xmlns:svg="http://www.w3.org/2000/svg"
   xmlns="http://www.w3.org/2000/svg"
   xmlns:sodipodi="http://sodipodi.sourceforge.net/DTD/sodipodi-0.dtd"
   xmlns:inkscape="http://www.inkscape.org/namespaces/inkscape"
   width="320"
   height="320"
   viewBox="0 0 84.666665 84.666669"
   version="1.1"
   id="svg8"
   inkscape:version="1.0.2 (e86c870879, 2021-01-15)"
   sodipodi:docname="utilities-terminal.svg"
   inkscape:export-filename="/home/paul/Images/opendingux/icons/poweroff.png"
   inkscape:export-xdpi="38.400002"
   inkscape:export-ydpi="38.400002">
  <defs
     id="defs2">
    <rect
       x="12.415632"
       y="28.123053"
       width="58.122698"
       height="49.888428"
       id="rect876" />
  </defs>
  <sodipodi:namedview
     id="base"
     pagecolor="#ffffff"
     bordercolor="#666666"
     borderopacity="1.0"
     inkscape:pageopacity="0.0"
     inkscape:pageshadow="2"
     inkscape:zoom="1.4"
     inkscape:cx="103.6131"
     inkscape:cy="160.72421"
     inkscape:document-units="px"
     inkscape:current-layer="layer1"
     inkscape:document-rotation="0"
     showgrid="false"
     units="px"
     showguides="false"
     inkscape:window-width="1600"
     inkscape:window-height="836"
     inkscape:window-x="0"
     inkscape:window-y="0"
     inkscape:window-maximized="1"
     inkscape:lockguides="false" />
  <metadata
     id="metadata5">
    <rdf:RDF>
      <cc:Work
         rdf:about="">
        <dc:format>image/svg+xml</dc:format>
        <dc:type
           rdf:resource="http://purl.org/dc/dcmitype/StillImage" />
        <dc:title />
      </cc:Work>
    </rdf:RDF>
  </metadata>
  <g
     inkscape:label="Calque 1"
     inkscape:groupmode="layer"
     id="layer1">
    <rect
       style="fill:#000000;fill-opacity:1;stroke-width:1.52062;stroke-miterlimit:4;stroke-dasharray:none"
       id="rect1282"
       width="84.666664"
       height="84.666664"
       x="-2.220446e-16"
       y="0"
       rx="16.933334"
       ry="16.933334" />
    <rect
       style="fill:#666666;stroke-width:1.42558;stroke-miterlimit:4;stroke-dasharray:none;fill-opacity:1"
       id="rect1244"
       width="79.375"
       height="79.375"
       x="2.6458333"
       y="2.6458333"
       rx="15.875"
       ry="15.875" />
    <rect
       style="fill:#808080;fill-opacity:1;stroke-width:1.2355;stroke-miterlimit:4;stroke-dasharray:none"
       id="rect1244-3-6"
       width="68.791664"
       height="68.791664"
       x="7.9375"
       y="7.9375"
       rx="13.758334"
       ry="13.758334" />
    <path
       id="rect1244-3"
       style="fill:#cccccc;fill-opacity:1;stroke-width:5.38802;stroke-miterlimit:4;stroke-dasharray:none"
       d="M 70 10 C 36.759999 10 10 36.759999 10 70 L 70 70 L 250 70 L 310 70 C 310 36.759999 283.24 10 250 10 L 70 10 z "
       transform="scale(0.26458333)" />
    <g
       aria-label="~$"
       transform="matrix(3.8905998,0,0,3.8905998,-39.439403,-80.460296)"
       id="text874"
       style="font-style:normal;font-weight:normal;font-size:10.5833px;line-height:1.25;font-family:sans-serif;white-space:pre;shape-inside:url(#rect876);fill:#ffffff;fill-opacity:1;stroke:none">
      <path
         d="m 20.162288,33.264836 v 0.919837 q -0.542601,0.408243 -1.007687,0.583942 -0.459919,0.175699 -0.961179,0.175699 -0.568439,0 -1.322912,-0.30489 -0.05684,-0.02067 -0.08268,-0.03101 -0.03617,-0.0155 -0.113688,-0.04134 -0.800982,-0.320392 -1.286739,-0.320392 -0.454751,0 -0.899167,0.201537 -0.444416,0.19637 -0.950843,0.625283 v -0.919838 q 0.5426,-0.408242 1.002519,-0.583942 0.465087,-0.180866 0.966346,-0.180866 0.568439,0 1.328081,0.310057 0.05168,0.02067 0.07751,0.03101 0.04134,0.0155 0.113688,0.04134 0.800982,0.320393 1.286739,0.320393 0.444416,0 0.878496,-0.19637 0.439249,-0.19637 0.971514,-0.63045 z"
         style="fill:#ff0000"
         id="path880" />
      <path
         d="m 24.859661,39.042242 h -0.516763 l -0.0052,-1.555455 q -0.542601,-0.01034 -1.085201,-0.124023 -0.542601,-0.118856 -1.09037,-0.351399 v -0.930173 q 0.527098,0.330728 1.064531,0.50126 0.542601,0.165364 1.116208,0.170532 v -2.356438 q -1.142046,-0.186035 -1.663976,-0.630451 -0.516763,-0.444416 -0.516763,-1.21956 0,-0.842323 0.563272,-1.32808 0.563271,-0.485757 1.617467,-0.558103 v -1.214393 h 0.516763 v 1.19889 q 0.480589,0.02067 0.930172,0.103352 0.449584,0.07751 0.878497,0.217041 v 0.904334 q -0.428913,-0.21704 -0.883664,-0.335895 -0.449584,-0.118856 -0.925005,-0.139526 v 2.206576 q 1.173051,0.180867 1.725987,0.645954 0.552936,0.465086 0.552936,1.271236 0,0.873329 -0.58911,1.379756 -0.583941,0.50126 -1.689813,0.578774 z m -0.516763,-5.534528 v -2.118727 q -0.599445,0.06718 -0.91467,0.341063 -0.315225,0.273885 -0.315225,0.728636 0,0.444416 0.289387,0.692462 0.294555,0.248046 0.940508,0.356566 z m 0.516763,0.992184 v 2.237583 q 0.656288,-0.08785 0.987016,-0.372069 0.335896,-0.28422 0.335896,-0.749306 0,-0.454751 -0.320393,-0.723468 -0.315225,-0.268717 -1.002519,-0.39274 z"
         style="fill:#ffffff"
         id="path882" />
    </g>
  </g>
</svg>
