<?xml version="1.0" encoding="UTF-8" standalone="no"?>
<svg
   xmlns:dc="http://purl.org/dc/elements/1.1/"
   xmlns:cc="http://creativecommons.org/ns#"
   xmlns:rdf="http://www.w3.org/1999/02/22-rdf-syntax-ns#"
   xmlns:svg="http://www.w3.org/2000/svg"
   xmlns="http://www.w3.org/2000/svg"
   xmlns:sodipodi="http://sodipodi.sourceforge.net/DTD/sodipodi-0.dtd"
   xmlns:inkscape="http://www.inkscape.org/namespaces/inkscape"
   width="16"
   height="16"
   viewBox="0 0 42.333332 42.333335"
   version="1.1"
   id="svg8"
   inkscape:version="1.0.2 (e86c870879, 2021-01-15)"
   sodipodi:docname="accept.svg">
  <defs
     id="defs2">
    <rect
       x="-22.21902"
       y="11.787763"
       width="18.420433"
       height="23.166914"
       id="rect838" />
    <rect
       x="-17.111912"
       y="28.963902"
       width="17.307545"
       height="17.703608"
       id="rect849" />
    <rect
       x="-19.512652"
       y="-1.1734241"
       width="19.748148"
       height="16.446025"
       id="rect843" />
    <rect
       x="-14.386719"
       y="15.139718"
       width="13.429228"
       height="19.744088"
       id="rect837" />
  </defs>
  <sodipodi:namedview
     id="base"
     pagecolor="#ffffff"
     bordercolor="#666666"
     borderopacity="1.0"
     inkscape:pageopacity="0.0"
     inkscape:pageshadow="2"
     inkscape:zoom="2.8"
     inkscape:cx="66.124742"
     inkscape:cy="99.20671"
     inkscape:document-units="px"
     inkscape:current-layer="layer1"
     inkscape:document-rotation="0"
     showgrid="false"
     units="px"
     inkscape:window-width="1600"
     inkscape:window-height="836"
     inkscape:window-x="0"
     inkscape:window-y="0"
     inkscape:window-maximized="1" />
  <metadata
     id="metadata5">
    <rdf:RDF>
      <cc:Work
         rdf:about="">
        <dc:format>image/svg+xml</dc:format>
        <dc:type
           rdf:resource="http://purl.org/dc/dcmitype/StillImage" />
        <dc:title />
      </cc:Work>
    </rdf:RDF>
  </metadata>
  <g
     inkscape:label="Calque 1"
     inkscape:groupmode="layer"
     id="layer1">
    <circle
       style="fill:#808080;stroke:none;stroke-width:6.00932"
       id="path833"
       cx="21.166666"
       cy="21.166666"
       r="21.166666" />
    <g
       aria-label="A"
       transform="matrix(2.4995914,0,0,3.0722064,63.422389,-34.602986)"
       id="text836"
       style="font-style:normal;font-weight:normal;font-size:10.5833px;line-height:1.25;font-family:sans-serif;white-space:pre;shape-inside:url(#rect838);fill:#ffffff;fill-opacity:1;stroke:none">
      <path
         d="m -20.842921,14.718683 q 0.105833,-0.01058 0.211666,-0.01058 0,0 7.492976,0 0.455082,0.01058 0.793748,0.201083 0.306915,0.158749 0.518581,0.444498 0.169333,0.243416 0.201083,0.529165 0.01058,0.05292 0.01058,0.264583 0,0 0,5.027067 0.01058,0.148166 -0.04233,0.243416 -0.08467,0.169333 -0.296332,0.169333 -0.01058,0 -0.04233,0 -0.03175,0 -0.04233,0 -0.328082,0 -1.02658,0 -0.698498,0.01058 -1.068913,0.01058 -0.211666,0 -0.328082,-0.116416 -0.08467,-0.09525 -0.08467,-0.253999 0.01058,-0.01058 0.01058,-0.15875 0,-0.148166 0,-0.158749 0,-0.243416 -0.01058,-0.518582 0,-0.275166 0,-0.603248 0,-0.338666 0,-0.518582 0,-0.116416 -0.0635,-0.201082 -0.0635,-0.08467 -0.222249,-0.137583 -0.126999,-0.04233 -0.275166,-0.04233 h -3.651238 q -0.201083,0 -0.359832,0.116417 -0.127,0.09525 -0.127,0.232832 0,0.127 0,0.963081 0,0.83608 0,0.952497 0,0.201082 -0.04233,0.296332 -0.04233,0.0635 -0.127,0.09525 -0.116416,0.03175 -0.328082,0.03175 -0.275166,0 -0.984247,0 -0.698498,-0.01058 -1.09008,-0.01058 -0.137583,0.01058 -0.201082,-0.02117 -0.127,-0.05292 -0.15875,-0.201083 -0.01058,-0.04233 -0.01058,-0.190499 0,-3.17499 -0.01058,-5.132901 0.01058,-0.222249 0.01058,-0.285749 0.04233,-0.275166 0.232832,-0.497415 0.148167,-0.158749 0.391583,-0.296332 0.328082,-0.1905 0.719664,-0.22225 z m 2.21191,1.788578 q -0.254,0.01058 -0.423332,0.116416 -0.127,0.07408 -0.169333,0.179916 -0.0635,0.15875 0,0.306916 0.05292,0.105833 0.201082,0.190499 0.169333,0.09525 0.412749,0.08467 0.550332,0 3.534822,0 0.169333,0 0.296333,-0.05292 0.190499,-0.07408 0.243416,-0.285749 0.02117,-0.09525 -0.01058,-0.190499 -0.07408,-0.190499 -0.253999,-0.275166 -0.137583,-0.07408 -0.359832,-0.07408 -0.370416,0 -1.735661,0 -1.365246,0 -1.735661,0 z"
         style="font-style:normal;font-variant:normal;font-weight:normal;font-stretch:normal;font-family:GCWZERO;-inkscape-font-specification:GCWZERO;fill:#ffffff"
         id="path840" />
    </g>
  </g>
</svg>
