<?xml version="1.0" encoding="UTF-8" standalone="no"?>
<svg
   xmlns:dc="http://purl.org/dc/elements/1.1/"
   xmlns:cc="http://creativecommons.org/ns#"
   xmlns:rdf="http://www.w3.org/1999/02/22-rdf-syntax-ns#"
   xmlns:svg="http://www.w3.org/2000/svg"
   xmlns="http://www.w3.org/2000/svg"
   xmlns:sodipodi="http://sodipodi.sourceforge.net/DTD/sodipodi-0.dtd"
   xmlns:inkscape="http://www.inkscape.org/namespaces/inkscape"
   width="160"
   height="160"
   viewBox="0 0 42.333332 42.333335"
   version="1.1"
   id="svg8"
   inkscape:version="1.0.2 (e86c870879, 2021-01-15)"
   sodipodi:docname="down.svg">
  <defs
     id="defs2">
    <rect
       x="-22.21902"
       y="11.787763"
       width="18.420433"
       height="23.166914"
       id="rect838" />
    <rect
       x="-17.111912"
       y="28.963902"
       width="17.307545"
       height="17.703608"
       id="rect849" />
    <rect
       x="-19.512652"
       y="-1.1734241"
       width="19.748148"
       height="16.446025"
       id="rect843" />
    <rect
       x="-14.386719"
       y="15.139718"
       width="13.429228"
       height="19.744088"
       id="rect837" />
  </defs>
  <sodipodi:namedview
     id="base"
     pagecolor="#ffffff"
     bordercolor="#666666"
     borderopacity="1.0"
     inkscape:pageopacity="0.0"
     inkscape:pageshadow="2"
     inkscape:zoom="2.8284271"
     inkscape:cx="127.81548"
     inkscape:cy="57.486115"
     inkscape:document-units="px"
     inkscape:current-layer="layer1"
     inkscape:document-rotation="0"
     showgrid="false"
     units="px"
     inkscape:window-width="1600"
     inkscape:window-height="836"
     inkscape:window-x="0"
     inkscape:window-y="0"
     inkscape:window-maximized="1" />
  <metadata
     id="metadata5">
    <rdf:RDF>
      <cc:Work
         rdf:about="">
        <dc:format>image/svg+xml</dc:format>
        <dc:type
           rdf:resource="http://purl.org/dc/dcmitype/StillImage" />
        <dc:title />
      </cc:Work>
    </rdf:RDF>
  </metadata>
  <g
     inkscape:label="Calque 1"
     inkscape:groupmode="layer"
     id="layer1">
    <path
       id="rect839"
       style="fill:#808080;stroke:none;stroke-width:1.58429"
       d="m 0,10.251053 c 0,0.184031 0.48551758,0.332279 1.0883056,0.332279 h 4.203361 v 23.8125 c 0,4.397375 3.540125,7.9375 7.9375004,7.9375 h 15.874999 c 4.397375,0 7.9375,-3.540125 7.9375,-7.9375 v -23.8125 h 4.203361 c 0.602787,0 1.088306,-0.148248 1.088306,-0.332279 V 0.33227882 C 42.333333,0.14824789 41.847814,-8e-7 41.245027,-8e-7 H 29.104166 13.229167 1.0883056 C 0.48551758,-8e-7 0,0.14824789 0,0.33227882 Z" />
    <path
       sodipodi:type="star"
       style="fill:#ffffff;stroke:none;stroke-width:2.64583"
       id="path845"
       sodipodi:sides="3"
       sodipodi:cx="12.17192"
       sodipodi:cy="21.479"
       sodipodi:r1="9.5260868"
       sodipodi:r2="4.7630429"
       sodipodi:arg1="3.1415927"
       sodipodi:arg2="4.1887902"
       inkscape:flatsided="true"
       inkscape:rounded="0"
       inkscape:randomized="0"
       transform="matrix(0,-0.92582027,1.2828542,0,-6.387759,42.137065)"
       inkscape:transform-center-x="2.2048612"
       d="m 2.645833,21.479 14.289131,-8.249833 -1e-6,16.499666 z" />
    <rect
       style="fill:#ffffff;stroke:none;stroke-width:1.26686"
       id="rect847"
       width="5.2916665"
       height="21.166666"
       x="-23.812498"
       y="10.583333"
       rx="0.14223683"
       ry="1.6248399"
       transform="rotate(-90)" />
    <rect
       style="fill:#ffffff;stroke:none;stroke-width:1.26686"
       id="rect847-3"
       width="5.2916665"
       height="21.166666"
       x="-15.874998"
       y="10.583333"
       rx="0.14223683"
       ry="1.6248399"
       transform="rotate(-90)" />
  </g>
</svg>
