<?xml version="1.0" encoding="UTF-8" standalone="no"?>
<svg
   xmlns:dc="http://purl.org/dc/elements/1.1/"
   xmlns:cc="http://creativecommons.org/ns#"
   xmlns:rdf="http://www.w3.org/1999/02/22-rdf-syntax-ns#"
   xmlns:svg="http://www.w3.org/2000/svg"
   xmlns="http://www.w3.org/2000/svg"
   xmlns:sodipodi="http://sodipodi.sourceforge.net/DTD/sodipodi-0.dtd"
   xmlns:inkscape="http://www.inkscape.org/namespaces/inkscape"
   width="160"
   height="160"
   viewBox="0 0 42.333332 42.333335"
   version="1.1"
   id="svg8"
   inkscape:version="1.0.2 (e86c870879, 2021-01-15)"
   sodipodi:docname="select.svg">
  <defs
     id="defs2">
    <rect
       x="-2.4997531"
       y="9.2093668"
       width="50.900543"
       height="22.282919"
       id="rect845" />
    <rect
       x="0.19267927"
       y="4.3053851"
       width="70.649053"
       height="31.733933"
       id="rect844" />
    <rect
       x="-22.21902"
       y="11.787763"
       width="18.420433"
       height="23.166914"
       id="rect838" />
    <rect
       x="-17.111912"
       y="28.963902"
       width="17.307545"
       height="17.703608"
       id="rect849" />
    <rect
       x="-19.512652"
       y="-1.1734241"
       width="19.748148"
       height="16.446025"
       id="rect843" />
    <rect
       x="-14.386719"
       y="15.139718"
       width="13.429228"
       height="19.744088"
       id="rect837" />
  </defs>
  <sodipodi:namedview
     id="base"
     pagecolor="#ffffff"
     bordercolor="#666666"
     borderopacity="1.0"
     inkscape:pageopacity="0.0"
     inkscape:pageshadow="2"
     inkscape:zoom="2.8284271"
     inkscape:cx="16.004909"
     inkscape:cy="68.028242"
     inkscape:document-units="px"
     inkscape:current-layer="layer1"
     inkscape:document-rotation="0"
     showgrid="false"
     units="px"
     inkscape:window-width="1600"
     inkscape:window-height="836"
     inkscape:window-x="0"
     inkscape:window-y="0"
     inkscape:window-maximized="1" />
  <metadata
     id="metadata5">
    <rdf:RDF>
      <cc:Work
         rdf:about="">
        <dc:format>image/svg+xml</dc:format>
        <dc:type
           rdf:resource="http://purl.org/dc/dcmitype/StillImage" />
        <dc:title />
      </cc:Work>
    </rdf:RDF>
  </metadata>
  <g
     inkscape:label="Calque 1"
     inkscape:groupmode="layer"
     id="layer1">
    <circle
       style="fill:#808080;stroke:none;stroke-width:6.00932"
       id="path833"
       cx="21.166666"
       cy="21.166666"
       r="21.166666" />
    <path
       d="m 4.3815009,13.249508 q 0.1058334,-0.02034 0.4762501,-0.02034 0,0 7.747002,0 0.285751,0 0.412751,0.08139 0.105833,0.06105 0.148166,0.223861 0.0635,0.203511 0.0635,0.671586 0,0 0,1.668788 0,0.264565 -0.08467,0.447723 -0.08467,0.162815 -0.243416,0.223863 -0.04234,0 -0.285751,0.02034 -1.259417,0 -3.5771674,0.02034 -2.3071674,0 -3.1009177,0.02034 -0.1481667,-0.02034 -0.2116667,0.02034 -0.2434168,0.122107 -0.2963334,0.549479 -0.03175,0.284915 -0.010583,0.590182 0.042334,0.407022 0.2645835,0.569829 0.084667,0.06105 0.1799167,0.06105 0.4974168,0 1.7568338,0 1.2594171,0 1.9367507,0 0.0635,0 0.8149165,0 0.751417,0 0.8255,0 0.508001,0 0.92075,0.223861 0.3175,0.162815 0.560917,0.468075 0.306917,0.366319 0.455084,0.997202 0.09525,0.468076 0.09525,1.017555 v 2.299671 q 0,0.651233 -0.02117,0.814042 -0.0635,0.75299 -0.338667,1.282116 -0.179917,0.325617 -0.518584,0.590182 -0.508,0.386671 -1.217083,0.36632 H 3.3972511 q -0.03175,0 -0.1481668,0 -0.1058333,0 -0.1375833,0 -0.2010834,-0.02032 -0.3069168,-0.12208 -0.09525,-0.101763 -0.127,-0.345968 -0.021167,-0.162816 -0.03175,-0.407022 0,-0.284917 0,-0.875096 0,-0.610533 0,-0.895447 0,-0.305267 0.1058334,-0.488427 0.1164167,-0.18316 0.3386668,-0.203511 1.1430004,0 3.3972511,0 2.264834,-0.02034 3.3760843,-0.04071 0.2434164,0 0.2645834,-0.02034 0.254,-0.101763 0.3175,-0.549479 0.04233,-0.284915 0.01058,-0.59018 -0.02117,-0.203511 -0.105833,-0.36632 -0.08467,-0.183161 -0.201084,-0.223861 -0.0635,-0.04071 -0.1799165,-0.04071 -0.4550834,0 -4.6355013,0 -0.1587501,0 -0.6032502,-0.02034 -0.6985,0.02034 -1.2065003,-0.366325 Q 3.1961673,20.657273 3.0268339,20.331656 2.7410838,19.82288 2.6670004,19.090241 2.6458333,18.866379 2.6458333,18.622166 v -2.747394 q 0,-0.691936 0.1693334,-1.221064 0.1164167,-0.345968 0.2751668,-0.610532 0.127,-0.18316 0.3386668,-0.366321 0.4127501,-0.366318 0.9525003,-0.427372 z"
       style="font-style:normal;font-variant:normal;font-weight:normal;font-stretch:normal;font-size:10.5833px;line-height:1.25;font-family:GCWZERO;-inkscape-font-specification:GCWZERO;white-space:pre;fill:#ffffff;fill-opacity:1;stroke:none;stroke-width:1.3867"
       id="path842" />
    <path
       d="m 17.610079,13.249541 q 0.105798,-0.02037 0.486671,-0.02037 0,0 7.712682,0 0.296234,0 0.423193,0.06115 0.105799,0.08153 0.148117,0.224223 0.07406,0.203837 0.07406,0.611515 0,0 0,1.753011 -0.01058,0.285374 -0.09522,0.448445 -0.08464,0.163079 -0.253917,0.224223 -0.02116,0 -0.264494,0 -1.258998,0.02037 -3.575977,0.04078 -2.306398,0 -3.099884,0 -0.148117,0 -0.211596,0.04078 -0.253916,0.14268 -0.296236,0.591132 -0.03174,0.285374 0,0.59113 0.0529,0.407677 0.285656,0.550366 0.07406,0.04078 0.190436,0.04078 3.575977,0 6.71818,0 0.232757,0.02037 0.296236,0.02037 0.137536,0.04078 0.201015,0.122304 0.06348,0.08153 0.08464,0.26499 0.01058,0.08153 0.02117,0.387293 v 1.304566 q 0,0.428061 -0.116377,0.611516 -0.0529,0.08153 -0.148118,0.101926 -0.07406,0.04078 -0.296235,0.04078 0,0 -6.813399,0 -0.126957,0 -0.222176,0.122303 -0.148117,0.203838 -0.190436,0.52998 -0.03174,0.305757 0,0.631899 0.02117,0.244607 0.116378,0.428061 0.07406,0.163077 0.169277,0.203837 0.0529,0.02037 0.158697,0.02037 1.301317,0 3.692355,-0.02037 2.391037,-0.02037 3.152783,-0.02037 0.169277,0 0.275075,0.04078 0.08464,0.04078 0.137538,0.101927 0.0529,0.101925 0.07406,0.285372 0,0.06115 0.01058,0.366911 0,0.224222 0,0.856121 0,0.6319 0,0.95804 0.01058,0.183455 -0.01058,0.285376 -0.04232,0.224221 -0.126958,0.305756 -0.08464,0.08153 -0.243337,0.08153 -1.534071,0 -4.348302,0.02037 -2.814229,0 -3.798151,0 -0.402034,0 -0.730008,-0.101926 -0.359713,-0.101953 -0.624208,-0.326177 -0.317395,-0.264989 -0.486672,-0.69305 -0.201017,-0.509595 -0.211596,-1.263799 v -8.194305 q 0,-0.733819 0.190436,-1.284183 0.116379,-0.326142 0.275075,-0.570748 0.126959,-0.183454 0.327974,-0.36691 0.412613,-0.346525 0.941605,-0.407677 z"
       style="font-style:normal;font-variant:normal;font-weight:normal;font-stretch:normal;font-size:10.5833px;line-height:1.25;font-family:GCWZERO;-inkscape-font-specification:GCWZERO;white-space:pre;fill:#ffffff;fill-opacity:1;stroke:none;stroke-width:1.38759"
       id="path844" />
    <path
       d="m 29.368744,13.249477 q 0.04233,0 0.08467,-0.02031 0,0 2.010833,0 0.169333,0.02031 0.264583,0.121928 0.127,0.142243 0.127,0.467391 0,6.685721 0,8.311428 -0.01058,0.365783 0.0635,0.589317 0.09525,0.304822 0.296335,0.365786 0.04233,0.02031 0.169333,0.02031 0.9525,0 3.27025,0.02031 2.328333,0 3.58775,0.02031 0.201083,0 0.3175,0.142243 0.08467,0.121929 0.116416,0.325142 0.01058,0.101613 0.01058,0.386104 v 1.605387 q 0,0.264177 -0.03175,0.426747 -0.03175,0.182893 -0.09525,0.264177 -0.0635,0.08128 -0.158751,0.121929 -0.116416,0.04065 -0.264583,0.04065 0,0 -7.535334,0 -0.04234,0 -0.275165,0 -0.232835,0 -0.275168,0 -0.423333,-0.02031 -0.772584,-0.182893 -0.328079,-0.162578 -0.58208,-0.467391 -0.253999,-0.284499 -0.412748,-0.751889 -0.137584,-0.44707 -0.169334,-1.016068 0,-0.08128 -0.01058,-0.487711 0.01058,-7.539217 0.01058,-9.55103 -0.01058,-0.345462 0.04234,-0.508034 0.0635,-0.203213 0.211667,-0.243855 z"
       style="font-style:normal;font-variant:normal;font-weight:normal;font-stretch:normal;font-size:10.5833px;line-height:1.25;font-family:GCWZERO;-inkscape-font-specification:GCWZERO;white-space:pre;fill:#ffffff;fill-opacity:1;stroke:none;stroke-width:1.38569"
       id="path846" />
  </g>
</svg>
