<?xml version="1.0" encoding="UTF-8" standalone="no"?>
<svg
   xmlns:dc="http://purl.org/dc/elements/1.1/"
   xmlns:cc="http://creativecommons.org/ns#"
   xmlns:rdf="http://www.w3.org/1999/02/22-rdf-syntax-ns#"
   xmlns:svg="http://www.w3.org/2000/svg"
   xmlns="http://www.w3.org/2000/svg"
   xmlns:sodipodi="http://sodipodi.sourceforge.net/DTD/sodipodi-0.dtd"
   xmlns:inkscape="http://www.inkscape.org/namespaces/inkscape"
   width="16"
   height="16"
   viewBox="0 0 42.333332 42.333335"
   version="1.1"
   id="svg8"
   inkscape:version="1.0.2 (e86c870879, 2021-01-15)"
   sodipodi:docname="start.svg">
  <defs
     id="defs2">
    <rect
       x="-30.476818"
       y="-6.3200892"
       width="52.200297"
       height="27.051853"
       id="rect846" />
    <rect
       x="-2.4997531"
       y="9.2093668"
       width="50.900543"
       height="22.282919"
       id="rect845" />
    <rect
       x="0.19267927"
       y="4.3053851"
       width="70.649053"
       height="31.733933"
       id="rect844" />
    <rect
       x="-22.21902"
       y="11.787763"
       width="18.420433"
       height="23.166914"
       id="rect838" />
    <rect
       x="-17.111912"
       y="28.963902"
       width="17.307545"
       height="17.703608"
       id="rect849" />
    <rect
       x="-19.512652"
       y="-1.1734241"
       width="19.748148"
       height="16.446025"
       id="rect843" />
    <rect
       x="-14.386719"
       y="15.139718"
       width="13.429228"
       height="19.744088"
       id="rect837" />
  </defs>
  <sodipodi:namedview
     id="base"
     pagecolor="#ffffff"
     bordercolor="#666666"
     borderopacity="1.0"
     inkscape:pageopacity="0.0"
     inkscape:pageshadow="2"
     inkscape:zoom="2.8284271"
     inkscape:cx="16.004909"
     inkscape:cy="68.028242"
     inkscape:document-units="px"
     inkscape:current-layer="layer1"
     inkscape:document-rotation="0"
     showgrid="false"
     units="px"
     inkscape:window-width="1600"
     inkscape:window-height="836"
     inkscape:window-x="0"
     inkscape:window-y="0"
     inkscape:window-maximized="1" />
  <metadata
     id="metadata5">
    <rdf:RDF>
      <cc:Work
         rdf:about="">
        <dc:format>image/svg+xml</dc:format>
        <dc:type
           rdf:resource="http://purl.org/dc/dcmitype/StillImage" />
        <dc:title />
      </cc:Work>
    </rdf:RDF>
  </metadata>
  <g
     inkscape:label="Calque 1"
     inkscape:groupmode="layer"
     id="layer1">
    <circle
       style="fill:#808080;stroke:none;stroke-width:6.00932"
       id="path833"
       cx="21.166666"
       cy="21.166666"
       r="21.166666" />
    <path
       d="m 4.3815068,13.249518 q 0.1058332,-0.02035 0.476249,-0.02035 0,0 7.7469912,0 0.28575,0 0.412749,0.0814 0.105833,0.06105 0.148167,0.223862 0.0635,0.20351 0.0635,0.671582 0,0 0,1.668782 0,0.264563 -0.08467,0.447722 -0.08467,0.162807 -0.243417,0.223861 -0.04233,0 -0.285749,0.02035 -1.259416,0 -3.5771626,0.02035 -2.3071645,0 -3.1009131,0.02035 -0.1481663,-0.02035 -0.2116664,0.02035 -0.2434165,0.122107 -0.2963326,0.549477 -0.03175,0.284915 -0.01058,0.59018 0.04233,0.40702 0.2645835,0.569828 0.08467,0.06105 0.1799164,0.06105 0.497416,0 1.7568315,0 1.2594144,0 1.9367468,0 0.0635,0 0.8149165,0 0.751415,0 0.825499,0 0.507998,0 0.920748,0.223862 0.3175,0.162808 0.560917,0.468073 0.306916,0.366317 0.455083,0.997198 0.09525,0.468073 0.09525,1.01755 v 2.299665 q 0,0.651231 -0.02117,0.814039 -0.0635,0.752987 -0.338666,1.282114 -0.179917,0.325615 -0.518583,0.590178 -0.508,0.386669 -1.217082,0.366318 H 3.3972558 q -0.03175,0 -0.1481663,0 -0.1058332,0 -0.1375832,0 -0.2010834,-0.02034 -0.3069166,-0.122099 -0.09525,-0.101754 -0.1269993,-0.345968 -0.02117,-0.162807 -0.03175,-0.407019 0,-0.284914 0,-0.875093 0,-0.61053 0,-0.895444 0,-0.305265 0.1058333,-0.488424 0.1164162,-0.18316 0.3386656,-0.203509 1.1429993,0 3.3972467,0 2.2648305,-0.02035 3.3760787,-0.0407 0.2434164,0 0.2645834,-0.02035 0.254,-0.101756 0.3175,-0.549477 0.04233,-0.284913 0.01058,-0.590178 -0.02117,-0.203511 -0.105833,-0.366319 -0.08467,-0.183159 -0.201084,-0.22386 -0.0635,-0.0407 -0.1799162,-0.0407 -0.4550829,0 -4.6354942,0 -0.1587503,0 -0.6032491,-0.02035 -0.6984994,0.02034 -1.2064984,-0.366328 -0.3280837,-0.244212 -0.497416,-0.569828 -0.2857506,-0.508774 -0.3598337,-1.24141 -0.02117,-0.223861 -0.02117,-0.468073 v -2.747385 q 0,-0.691933 0.1693334,-1.22106 0.1164162,-0.345966 0.2751655,-0.610529 0.1270003,-0.18316 0.3386667,-0.366318 0.4127499,-0.366319 0.9524989,-0.427371 z"
       style="font-style:normal;font-variant:normal;font-weight:normal;font-stretch:normal;font-size:10.5833px;line-height:1.25;font-family:GCWZERO;-inkscape-font-specification:GCWZERO;white-space:pre;fill:#ffffff;fill-opacity:1;stroke:none;stroke-width:1.3867"
       id="path844" />
    <path
       d="m 16.612913,13.57516 q 0.374005,-0.345993 0.8592,-0.345993 0.980499,0 2.102513,0 1.122014,0 2.456301,0.02035 1.344396,0 2.112621,0 0.313356,0 0.555953,0.04071 0.374004,0.06106 0.677252,0.325641 0.303247,0.244231 0.464978,0.71234 0.09098,0.244231 0.141516,0.54952 0.07076,0.386698 0.08086,0.854807 0,0.651282 0,1.852083 0,1.200801 0,1.404327 0.0101,0.488462 -0.05054,0.834455 -0.101082,0.569872 -0.34368,0.895513 -0.141515,0.162821 -0.363896,0.284936 -0.34368,0.162821 -0.74801,0.203526 -0.303247,0.0407 -0.727793,0.0407 0.717685,1.200801 2.436085,4.13157 0.08087,0.142468 0.101082,0.203525 0.09097,0.183174 0.09097,0.407052 0,0.223879 -0.04043,0.325641 -0.05054,0.122115 -0.141516,0.101764 -2.425975,0.0407 -2.638248,0.0407 -0.06065,0 -0.23249,-0.08141 -0.04043,-0.02035 -0.101082,-0.101762 -0.05055,-0.08141 -0.06065,-0.08141 -0.03032,-0.0407 -0.08087,-0.142468 -0.04043,-0.101762 -0.05055,-0.122115 -0.45487,-0.834456 -1.647643,-3.073237 -1.192771,-2.238783 -1.849807,-3.459937 -0.07076,-0.142468 -0.08087,-0.16282 -0.07076,-0.223878 -0.09097,-0.386698 -0.02022,-0.203527 0.05055,-0.325641 0.05055,-0.122116 0.141515,-0.101763 2.698899,-0.02035 3.285175,-0.02035 0.18195,0 0.222382,-0.0407 0.212273,-0.122115 0.252705,-0.590224 0.02022,-0.284936 -0.0101,-0.569872 -0.04043,-0.244231 -0.141516,-0.407052 -0.101082,-0.183174 -0.232489,-0.183174 -0.808659,0 -2.314786,0 -1.506126,0 -1.82959,0 -0.09097,0.02035 -0.161732,0.162821 -0.101082,0.223878 -0.111191,0.569872 0,0.407051 0,1.160095 0,0.732693 0,0.875161 0.0101,0.630929 0.0101,2.869711 0,2.21843 0,3.419231 0.01011,0.386698 -0.09097,0.590224 -0.08087,0.183174 -0.272923,0.183174 -0.121299,0 -0.960283,0 -0.828874,0 -0.950174,0 -0.161732,0 -0.181948,-0.02035 -0.121298,-0.06106 -0.202164,-0.325641 -0.06065,-0.203525 -0.07076,-0.447756 0,-4.864263 0,-9.708173 0,-0.854808 0.192056,-1.42468 0.18195,-0.569871 0.545845,-0.936218 z"
       style="font-style:normal;font-variant:normal;font-weight:normal;font-stretch:normal;font-size:10.5833px;line-height:1.25;font-family:GCWZERO;-inkscape-font-specification:GCWZERO;white-space:pre;fill:#ffffff;fill-opacity:1;stroke:none;stroke-width:1.35527"
       id="path846" />
    <path
       d="m 28.14109,13.229168 q 0.08467,0 0.158749,0 0,0 9.44033,0 0.275166,0 0.402166,0.08129 0.105833,0.06096 0.148167,0.203212 0.07408,0.203213 0.07408,0.629961 0,0 0,1.72731 -0.01058,0.284498 -0.09525,0.447069 -0.08467,0.162569 -0.253999,0.223535 -0.03175,0 -0.243416,0.02032 -0.560917,0 -1.640416,0 -1.068917,0 -1.217084,0 -0.179916,0 -0.232833,0.02032 -0.09525,0.02032 -0.148166,0.162569 -0.105833,0.243856 -0.116417,0.589318 0,0.223534 0,0.650282 0,0.426747 0,0.487711 0.01058,0.93478 0.01058,3.393657 0,2.458879 0,3.800084 0.01058,0.426748 -0.105834,0.62996 -0.0635,0.101606 -0.169333,0.14225 -0.04234,0.02032 -0.211666,0.02032 -0.179918,0 -1.005417,0 -0.814916,0 -0.994833,0 -0.137583,-0.02032 -0.22225,-0.203214 -0.137583,-0.284497 -0.127,-0.670603 0,-1.463134 0,-3.800083 0,-2.33695 0,-3.800084 0,0 0,-0.182892 0,-0.182892 0.01058,-0.203212 -0.01058,-0.406427 -0.01058,-0.46739 -0.04234,-0.345463 -0.169333,-0.487711 -0.04234,-0.06096 -0.179917,-0.08129 -1.365249,0 -3.005665,0 -0.232833,-0.02032 -0.34925,-0.203213 -0.105833,-0.162569 -0.105833,-0.487711 0,-1.605382 0,-1.828917 0,-0.426748 0.09525,-0.609639 0.07408,-0.142249 0.264583,-0.203213 z"
       style="font-style:normal;font-variant:normal;font-weight:normal;font-stretch:normal;font-size:10.5833px;line-height:1.25;font-family:GCWZERO;-inkscape-font-specification:GCWZERO;white-space:pre;fill:#ffffff;fill-opacity:1;stroke:none;stroke-width:1.38569"
       id="path848" />
  </g>
</svg>
