<?xml version="1.0" encoding="UTF-8" standalone="no"?>
<svg
   xmlns:dc="http://purl.org/dc/elements/1.1/"
   xmlns:cc="http://creativecommons.org/ns#"
   xmlns:rdf="http://www.w3.org/1999/02/22-rdf-syntax-ns#"
   xmlns:svg="http://www.w3.org/2000/svg"
   xmlns="http://www.w3.org/2000/svg"
   xmlns:sodipodi="http://sodipodi.sourceforge.net/DTD/sodipodi-0.dtd"
   xmlns:inkscape="http://www.inkscape.org/namespaces/inkscape"
   width="32"
   height="32"
   viewBox="0 0 84.666665 84.666669"
   version="1.1"
   id="svg8"
   inkscape:version="1.0.2 (e86c870879, 2021-01-15)"
   sodipodi:docname="settings.svg"
   inkscape:export-filename="/home/paul/Images/opendingux/icons/poweroff.png"
   inkscape:export-xdpi="38.400002"
   inkscape:export-ydpi="38.400002">
  <defs
     id="defs2" />
  <sodipodi:namedview
     id="base"
     pagecolor="#ffffff"
     bordercolor="#666666"
     borderopacity="1.0"
     inkscape:pageopacity="0.0"
     inkscape:pageshadow="2"
     inkscape:zoom="1.979899"
     inkscape:cx="102.16909"
     inkscape:cy="152.78004"
     inkscape:document-units="px"
     inkscape:current-layer="layer1"
     inkscape:document-rotation="0"
     showgrid="false"
     units="px"
     showguides="false"
     inkscape:window-width="1600"
     inkscape:window-height="836"
     inkscape:window-x="0"
     inkscape:window-y="0"
     inkscape:window-maximized="1"
     inkscape:lockguides="false" />
  <metadata
     id="metadata5">
    <rdf:RDF>
      <cc:Work
         rdf:about="">
        <dc:format>image/svg+xml</dc:format>
        <dc:type
           rdf:resource="http://purl.org/dc/dcmitype/StillImage" />
        <dc:title />
      </cc:Work>
    </rdf:RDF>
  </metadata>
  <g
     inkscape:label="Calque 1"
     inkscape:groupmode="layer"
     id="layer1">
    <path
       id="path1403-3-6-3"
       style="fill:#ffffff;stroke:#000000;stroke-width:2.64583;stroke-miterlimit:4;stroke-dasharray:none;stroke-opacity:1"
       d="m 21.632127,29.648619 -1.777926,1.818444 0.942832,2.328355 -2.2762,0.964436 1.53e-4,2.571827 2.276122,0.964403 -0.942801,2.328276 1.777711,1.818664 2.276202,-0.964436 0.942832,2.328357 2.514217,-1.58e-4 0.942798,-2.328274 2.276126,0.964402 1.777925,-1.818443 -0.942832,-2.328357 2.276201,-0.964435 -1.53e-4,-2.571827 -2.276124,-0.964403 0.942802,-2.328275 -1.777712,-1.818666 -2.2762,0.964437 -0.942832,-2.328356 -2.514217,1.55e-4 -0.942802,2.328279 z m 3.427869,3.825382 a 2.7238944,2.7863076 0 0 1 0.0044,-0.0018 2.7238944,2.7863076 0 0 1 3.559598,1.505303 l -2.515734,1.068285 2.516549,-1.066274 a 2.7238944,2.7863076 0 0 1 -1.473671,3.640275 2.7238944,2.7863076 0 0 1 -3.559022,-1.506727 2.7238944,2.7863076 0 0 1 1.467978,-3.639044 z" />
    <rect
       style="fill:#000000;fill-opacity:1;stroke-width:1.52062;stroke-miterlimit:4;stroke-dasharray:none"
       id="rect1282"
       width="84.666664"
       height="84.666664"
       x="-2.220446e-16"
       y="0"
       rx="16.933334"
       ry="16.933334" />
    <path
       id="path1403-3-67"
       style="fill:#cccccc;stroke:#000000;stroke-width:2.64583;stroke-miterlimit:4;stroke-dasharray:none;stroke-opacity:1"
       d="m 34.382245,15.502548 -2.963211,3.030742 1.571386,3.880591 -3.793666,1.607394 2.55e-4,4.286376 3.793537,1.607338 -1.571336,3.880461 2.962853,3.031108 3.793668,-1.607394 1.571388,3.880594 4.190361,-2.61e-4 1.571334,-3.88046 3.793538,1.607339 2.963211,-3.030741 -1.571386,-3.880593 3.793666,-1.607393 -2.56e-4,-4.286375 -3.793536,-1.607339 1.571333,-3.880461 -2.962853,-3.031108 -3.793666,1.607393 -1.571387,-3.880592 -4.190361,2.59e-4 -1.571335,3.880462 z m 5.713112,6.375639 a 4.5398238,4.6438461 0 0 1 0.0072,-0.003 4.5398238,4.6438461 0 0 1 5.932667,2.508837 L 41.84233,26.1645 46.03658,24.387376 a 4.5398238,4.6438461 0 0 1 -2.456116,6.067125 4.5398238,4.6438461 0 0 1 -5.931706,-2.51121 4.5398238,4.6438461 0 0 1 2.446629,-6.065073 z" />
    <rect
       style="fill:#666666;stroke-width:1.42558;stroke-miterlimit:4;stroke-dasharray:none;fill-opacity:1"
       id="rect1244"
       width="79.375"
       height="79.375"
       x="2.6458333"
       y="2.6458333"
       rx="15.875"
       ry="15.875" />
    <path
       id="path1403-5"
       style="fill:#4d4d4d;stroke:#000000;stroke-width:2.64583;stroke-miterlimit:4;stroke-dasharray:none;stroke-opacity:1"
       d="m 37.997996,38.401407 -4.148496,4.243038 2.199938,5.43283 -5.311128,2.25035 3.52e-4,6.000927 5.310958,2.250275 -2.19987,5.432642 4.147988,4.243554 5.311138,-2.250352 2.199948,5.43283 5.866494,-3.66e-4 2.199872,-5.432643 5.310956,2.250274 4.148497,-4.243037 -2.199948,-5.432828 5.311138,-2.250352 -3.63e-4,-6.000926 -5.310947,-2.250274 2.19987,-5.432645 -4.147999,-4.243552 -5.311128,2.250352 -2.199948,-5.43283 -5.866504,3.63e-4 -2.199872,5.432646 z m 7.998356,8.925894 a 6.3557528,6.5013845 0 0 1 0.0096,-0.0043 6.3557528,6.5013845 0 0 1 8.305731,3.512375 l -5.870044,2.492666 5.871945,-2.487973 a 6.3557528,6.5013845 0 0 1 -3.438562,8.49401 6.3557528,6.5013845 0 0 1 -8.30439,-3.515692 6.3557528,6.5013845 0 0 1 3.425284,-8.491104 z" />
    <rect
       style="fill:#808080;fill-opacity:1;stroke-width:1.2355;stroke-miterlimit:4;stroke-dasharray:none"
       id="rect1244-3"
       width="68.791664"
       height="68.791664"
       x="7.9375"
       y="7.9375"
       rx="13.758333"
       ry="13.758333" />
    <g
       id="g926">
      <path
         id="path1403-3-6-5"
         style="fill:#ffffff;stroke:#000000;stroke-width:2.64583334;stroke-opacity:1;stroke-miterlimit:4;stroke-dasharray:none"
         d="m 21.632127,29.648619 -1.777926,1.818444 0.942832,2.328355 -2.2762,0.964436 1.53e-4,2.571827 2.276122,0.964403 -0.942801,2.328276 1.777711,1.818664 2.276202,-0.964436 0.942832,2.328357 2.514217,-1.58e-4 0.942798,-2.328274 2.276126,0.964402 1.777925,-1.818443 -0.942832,-2.328357 2.276201,-0.964435 -1.53e-4,-2.571827 -2.276124,-0.964403 0.942802,-2.328275 -1.777712,-1.818666 -2.2762,0.964437 -0.942832,-2.328356 -2.514217,1.55e-4 -0.942802,2.328279 z m 3.427869,3.825382 0.0044,-0.0018 c 1.389323,-0.589638 2.982896,0.08426 3.559598,1.505303 l 2.795216,-1.182054 -2.794401,1.184065 c 0.575614,1.421502 -0.08412,3.051193 -1.473671,3.640275 -1.389548,0.589082 -2.982864,-0.08546 -3.559022,-1.506727 -0.575467,-1.419555 0.08132,-3.047692 1.467978,-3.639044 z"
         sodipodi:nodetypes="ccccccccccccccccccccccccccccccsscc" />
      <path
         id="path1403-3-62"
         style="fill:#cccccc;stroke:#000000;stroke-width:2.64583334;stroke-opacity:1;stroke-miterlimit:4;stroke-dasharray:none"
         d="m 34.382245,15.502548 -2.963211,3.030742 1.571386,3.880591 -3.793666,1.607394 2.55e-4,4.286376 3.793537,1.607338 -1.571336,3.880461 2.962853,3.031108 3.793668,-1.607394 1.571388,3.880594 4.190361,-2.61e-4 1.571334,-3.88046 3.793538,1.607339 2.963211,-3.030741 -1.571386,-3.880593 3.793666,-1.607393 -2.56e-4,-4.286375 -3.793536,-1.607339 1.571333,-3.880461 -2.962853,-3.031108 -3.793666,1.607393 -1.571387,-3.880592 -4.190361,2.59e-4 -1.571335,3.880462 z m 5.713112,6.375639 0.0072,-0.003 c 2.315538,-0.982732 4.971497,0.140433 5.932667,2.508837 l 4.658827,-1.970089 -4.657471,1.973441 c 0.959357,2.369169 -0.140206,5.08532 -2.456116,6.067125 -2.315914,0.981805 -4.971442,-0.142423 -5.931706,-2.51121 -0.959112,-2.365925 0.135529,-5.079486 2.446629,-6.065073 z"
         sodipodi:nodetypes="ccccccccccccccccccccccccccccccsscc" />
      <path
         id="path1403-9"
         style="fill:#4d4d4d;stroke:#000000;stroke-width:2.64583334;stroke-opacity:1;stroke-miterlimit:4;stroke-dasharray:none"
         d="m 37.997996,38.401407 -4.148496,4.243038 2.199938,5.43283 -5.311128,2.25035 3.52e-4,6.000927 5.310958,2.250275 -2.19987,5.432642 4.147988,4.243554 5.311138,-2.250352 2.199948,5.43283 5.866494,-3.66e-4 2.199872,-5.432643 5.310956,2.250274 4.148497,-4.243037 -2.199948,-5.432828 5.311138,-2.250352 -3.63e-4,-6.000926 -5.310947,-2.250274 2.19987,-5.432645 -4.147999,-4.243552 -5.311128,2.250352 -2.199948,-5.43283 -5.866504,3.63e-4 -2.199872,5.432646 z m 7.998356,8.925894 0.0096,-0.0043 c 3.241754,-1.375823 6.960095,0.19661 8.305731,3.512375 l 6.52284,-2.758027 -6.520939,2.76272 c 1.343122,3.316846 -0.196269,7.119483 -3.438562,8.49401 -3.242279,1.374529 -6.960019,-0.199389 -8.30439,-3.515692 -1.342757,-3.312297 0.189742,-7.111284 3.425284,-8.491104 z"
         sodipodi:nodetypes="ccccccccccccccccccccccccccccccsscc" />
    </g>
    <g
       id="g878">
      <path
         id="path1403-3-6"
         style="fill:#ffffff;stroke-width:0.42137"
         d="m 21.632127,29.648619 -1.777926,1.818444 0.942832,2.328355 -2.2762,0.964436 1.53e-4,2.571827 2.276122,0.964403 -0.942801,2.328276 1.777711,1.818664 2.276202,-0.964436 0.942832,2.328357 2.514217,-1.58e-4 0.942798,-2.328274 2.276126,0.964402 1.777925,-1.818443 -0.942832,-2.328357 2.276201,-0.964435 -1.53e-4,-2.571827 -2.276124,-0.964403 0.942802,-2.328275 -1.777712,-1.818666 -2.2762,0.964437 -0.942832,-2.328356 -2.514217,1.55e-4 -0.942802,2.328279 z m 3.427869,3.825382 a 2.7238944,2.7863076 0 0 1 0.0044,-0.0018 2.7238944,2.7863076 0 0 1 3.559598,1.505303 l -2.515734,1.068285 2.516549,-1.066274 a 2.7238944,2.7863076 0 0 1 -1.473671,3.640275 2.7238944,2.7863076 0 0 1 -3.559022,-1.506727 2.7238944,2.7863076 0 0 1 1.467978,-3.639044 z" />
      <path
         id="path1403-3"
         style="fill:#cccccc;stroke-width:0.702286"
         d="m 34.382245,15.502548 -2.963211,3.030742 1.571386,3.880591 -3.793666,1.607394 2.55e-4,4.286376 3.793537,1.607338 -1.571336,3.880461 2.962853,3.031108 3.793668,-1.607394 1.571388,3.880594 4.190361,-2.61e-4 1.571334,-3.88046 3.793538,1.607339 2.963211,-3.030741 -1.571386,-3.880593 3.793666,-1.607393 -2.56e-4,-4.286375 -3.793536,-1.607339 1.571333,-3.880461 -2.962853,-3.031108 -3.793666,1.607393 -1.571387,-3.880592 -4.190361,2.59e-4 -1.571335,3.880462 z m 5.713112,6.375639 a 4.5398238,4.6438461 0 0 1 0.0072,-0.003 4.5398238,4.6438461 0 0 1 5.932667,2.508837 L 41.84233,26.1645 46.03658,24.387376 a 4.5398238,4.6438461 0 0 1 -2.456116,6.067125 4.5398238,4.6438461 0 0 1 -5.931706,-2.51121 4.5398238,4.6438461 0 0 1 2.446629,-6.065073 z" />
      <path
         id="path1403"
         style="fill:#4d4d4d;stroke-width:0.983206"
         d="m 37.997996,38.401407 -4.148496,4.243038 2.199938,5.43283 -5.311128,2.25035 3.52e-4,6.000927 5.310958,2.250275 -2.19987,5.432642 4.147988,4.243554 5.311138,-2.250352 2.199948,5.43283 5.866494,-3.66e-4 2.199872,-5.432643 5.310956,2.250274 4.148497,-4.243037 -2.199948,-5.432828 5.311138,-2.250352 -3.63e-4,-6.000926 -5.310947,-2.250274 2.19987,-5.432645 -4.147999,-4.243552 -5.311128,2.250352 -2.199948,-5.43283 -5.866504,3.63e-4 -2.199872,5.432646 z m 7.998356,8.925894 a 6.3557528,6.5013845 0 0 1 0.0096,-0.0043 6.3557528,6.5013845 0 0 1 8.305731,3.512375 l -5.870044,2.492666 5.871945,-2.487973 a 6.3557528,6.5013845 0 0 1 -3.438562,8.49401 6.3557528,6.5013845 0 0 1 -8.30439,-3.515692 6.3557528,6.5013845 0 0 1 3.425284,-8.491104 z" />
    </g>
  </g>
</svg>
